grf
version=1
nRows=11
nColumns=37
inDegrees=no
endheader
time	ground_force_1_vx	ground_force_1_vy	ground_force_1_vz	ground_force_1_px	ground_force_1_py	ground_force_1_pz	ground_moment_1_mx	ground_moment_1_my	ground_moment_1_mz	ground_force_2_vx	ground_force_2_vy	ground_force_2_vz	ground_force_2_px	ground_force_2_py	ground_force_2_pz	ground_moment_2_mx	ground_moment_2_my	ground_moment_2_mz	ground_force_3_vx	ground_force_3_vy	ground_force_3_vz	ground_force_3_px	ground_force_3_py	ground_force_3_pz	ground_moment_3_mx	ground_moment_3_my	ground_moment_3_mz	ground_force_4_vx	ground_force_4_vy	ground_force_4_vz	ground_force_4_px	ground_force_4_py	ground_force_4_pz	ground_moment_4_mx	ground_moment_4_my	ground_moment_4_mz
      4.74000000	      0.00000000	     -0.00000000	      0.00000000	      0.00000000	      0.00000000	      0.00000000	      0.00000000	      0.00000000	      0.00000000	    -18.44182205	    172.02166748	   -785.03576660	   -228.37208819	  -1223.09605454	      0.00000000	      0.00000000	      0.00000000	    951.63314417	     -3.93281584	   -166.89871181	   -718.32214355	   -255.91275380	   -551.45022108	      0.00000000	      0.00000000	     -0.00000000	  -5834.60567861	      0.00000000	     -0.00000000	      0.00000000	      0.00000000	      0.00000000	      0.00000000	      0.00000000	      0.00000000	      0.00000000
      4.75000000	      0.00000000	     -0.00000000	      0.00000000	      0.00000000	      0.00000000	      0.00000000	      0.00000000	      0.00000000	      0.00000000	    -10.61605072	    166.13906860	   -776.40185547	   -231.59842548	  -1222.09205564	      0.00000000	      0.00000000	      0.00000000	   1083.49690500	     -7.59973080	   -161.65939265	   -689.92547607	   -255.58340228	   -551.28518465	      0.00000000	      0.00000000	     -0.00000000	  -5712.16137072	      0.00000000	     -0.00000000	      0.00000000	      0.00000000	      0.00000000	      0.00000000	      0.00000000	      0.00000000	      0.00000000
      4.76000000	      0.00000000	     -0.00000000	      0.00000000	      0.00000000	      0.00000000	      0.00000000	      0.00000000	      0.00000000	      0.00000000	     -6.51688051	    160.67842102	   -761.23242188	   -234.21002640	  -1221.98080569	      0.00000000	      0.00000000	      0.00000000	    957.08817200	    -10.94070943	   -156.33027553	   -659.66259766	   -254.68792416	   -551.31695029	      0.00000000	      0.00000000	     -0.00000000	  -5194.09013482	      0.00000000	     -0.00000000	      0.00000000	      0.00000000	      0.00000000	      0.00000000	      0.00000000	      0.00000000	      0.00000000
      4.77000000	      0.00000000	     -0.00000000	      0.00000000	      0.00000000	      0.00000000	      0.00000000	      0.00000000	      0.00000000	      0.00000000	     -8.17435646	    155.80484009	   -736.19659424	   -234.93909962	  -1221.58974278	      0.00000000	      0.00000000	      0.00000000	    643.11980211	    -14.34202177	   -150.79800290	   -631.50054932	   -254.51276919	   -550.61356575	      0.00000000	      0.00000000	      0.00000000	  -4837.26878291	      0.00000000	     -0.00000000	      0.00000000	      0.00000000	      0.00000000	      0.00000000	      0.00000000	      0.00000000	      0.00000000
      4.78000000	      0.00000000	     -0.00000000	      0.00000000	      0.00000000	      0.00000000	      0.00000000	      0.00000000	      0.00000000	      0.00000000	    -11.86499786	    151.44314575	   -708.52099609	   -235.22227406	  -1222.15004504	      0.00000000	      0.00000000	      0.00000000	    472.87816422	    -16.41150781	   -144.19874429	   -602.18566895	   -254.39743114	   -550.96412780	      0.00000000	      0.00000000	     -0.00000000	  -4650.32119109	      0.00000000	     -0.00000000	      0.00000000	      0.00000000	      0.00000000	      0.00000000	      0.00000000	      0.00000000	      0.00000000
      4.79000000	      0.00000000	     -0.00000000	      0.00000000	      0.00000000	      0.00000000	      0.00000000	      0.00000000	      0.00000000	      0.00000000	    -14.32936382	    147.28260803	   -682.38867188	   -235.19450574	  -1221.88048360	      0.00000000	      0.00000000	     -0.00000000	    483.53624818	    -17.56474748	   -137.99342193	   -579.25067139	   -255.29420788	   -551.34152569	      0.00000000	     -0.00000000	     -0.00000000	  -4408.28419170	      0.00000000	     -0.00000000	      0.00000000	      0.00000000	      0.00000000	      0.00000000	      0.00000000	      0.00000000	      0.00000000
      4.80000000	      0.00000000	     -0.00000000	      0.00000000	      0.00000000	      0.00000000	      0.00000000	      0.00000000	      0.00000000	      0.00000000	    -15.64565182	    143.31556702	   -660.42224121	   -235.97314691	  -1222.26090135	      0.00000000	     -0.00000000	      0.00000000	    491.70907048	    -17.63219651	   -131.84063567	   -559.23760986	   -256.65070604	   -552.36671070	      0.00000000	      0.00000000	     -0.00000000	  -4114.90918726	      0.00000000	     -0.00000000	      0.00000000	      0.00000000	      0.00000000	      0.00000000	      0.00000000	      0.00000000	      0.00000000
      4.81000000	      0.00000000	     -0.00000000	      0.00000000	      0.00000000	      0.00000000	      0.00000000	      0.00000000	      0.00000000	      0.00000000	    -15.40585136	    139.64630127	   -648.35498047	   -238.34187031	  -1222.26447266	      0.00000000	      0.00000000	      0.00000000	    341.05195599	    -16.29707500	   -127.74451304	   -544.78912354	   -258.54024571	   -553.38893989	      0.00000000	      0.00000000	     -0.00000000	  -3742.86516437	      0.00000000	     -0.00000000	      0.00000000	      0.00000000	      0.00000000	      0.00000000	      0.00000000	      0.00000000	      0.00000000
      4.82000000	      0.00000000	     -0.00000000	      0.00000000	      0.00000000	      0.00000000	      0.00000000	      0.00000000	      0.00000000	      0.00000000	    -13.64230156	    136.49296570	   -640.55981445	   -241.62616394	  -1220.54515265	      0.00000000	      0.00000000	      0.00000000	    428.44520806	    -14.43471377	   -124.65024440	   -534.31402588	   -260.77006133	   -554.12809096	      0.00000000	      0.00000000	     -0.00000000	  -3299.17913430	      0.00000000	     -0.00000000	      0.00000000	      0.00000000	      0.00000000	      0.00000000	      0.00000000	      0.00000000	      0.00000000
      4.83000000	      0.00000000	     -0.00000000	      0.00000000	      0.00000000	      0.00000000	      0.00000000	      0.00000000	      0.00000000	      0.00000000	     -9.72394562	    134.06669617	   -638.27545166	   -245.62920620	  -1219.53002968	      0.00000000	      0.00000000	      0.00000000	     32.72382508	    -11.74917041	   -121.20921986	   -525.01245117	   -264.11736325	   -555.93930610	      0.00000000	      0.00000000	     -0.00000000	  -2939.75830437	      0.00000000	     -0.00000000	      0.00000000	      0.00000000	      0.00000000	      0.00000000	      0.00000000	      0.00000000	      0.00000000
      4.84000000	      0.00000000	     -0.00000000	      0.00000000	      0.00000000	      0.00000000	      0.00000000	      0.00000000	      0.00000000	      0.00000000	     -4.16572857	    131.99040222	   -636.15405273	   -249.73041044	  -1218.27927337	      0.00000000	      0.00000000	     -0.00000000	   -140.48723865	     -9.85099199	   -117.55210027	   -515.45880127	   -266.64351917	   -557.88722461	      0.00000000	      0.00000000	     -0.00000000	  -2607.84115416	      0.00000000	     -0.00000000	      0.00000000	      0.00000000	      0.00000000	      0.00000000	      0.00000000	      0.00000000	      0.00000000
